<svg xmlns="http://www.w3.org/2000/svg" viewBox="0 0 400 400" role="img">
  <defs>
    <linearGradient id="g" x1="0" y1="0" x2="1" y2="1">
      <stop offset="0" stop-color="#DCEFE2"/>
      <stop offset="1" stop-color="#74C69D" stop-opacity=".55"/>
    </linearGradient>
  </defs>
  <circle cx="200" cy="205" r="132" fill="url(#g)"/>
  <g fill="none" stroke="#1B4332" stroke-opacity=".18" stroke-width="2">
    <path d="M96 318c40-14 78-14 118 0s78 14 118 0"/>
  </g>

  <path d="M154 108 L112 128 L92 186 L132 204 L146 178 L146 300 Q200 314 254 300 L254 178 L268 204 L308 186 L288 128 L246 108 Q200 146 154 108 Z"
        fill="#1B4332"/>
  <path d="M154 108 Q200 146 246 108 L232 102 Q200 128 168 102 Z" fill="#F7F4EE" opacity=".9"/>
  <path d="M170 232h60M170 254h44" stroke="#F7F4EE" stroke-opacity=".45" stroke-width="7" stroke-linecap="round"/>

</svg>
