<svg xmlns="http://www.w3.org/2000/svg" viewBox="0 0 400 400" role="img">
  <defs>
    <linearGradient id="g" x1="0" y1="0" x2="1" y2="1">
      <stop offset="0" stop-color="#D9EAF2"/>
      <stop offset="1" stop-color="#7FB6CD" stop-opacity=".55"/>
    </linearGradient>
  </defs>
  <circle cx="200" cy="205" r="132" fill="url(#g)"/>
  <g fill="none" stroke="#1D4F66" stroke-opacity=".18" stroke-width="2">
    <path d="M96 318c40-14 78-14 118 0s78 14 118 0"/>
  </g>

  <path d="M200 116 a68 68 0 0 1 42 121 q-8 7 -9 18 h-66 q-1-11 -9-18 a68 68 0 0 1 42 -121 Z" fill="#7FB6CD"/>
  <rect x="166" y="264" width="68" height="18" rx="9" fill="#1D4F66"/>
  <rect x="172" y="288" width="56" height="16" rx="8" fill="#1D4F66"/>
  <rect x="180" y="310" width="40" height="14" rx="7" fill="#1D4F66" opacity=".6"/>
<g transform="translate(172,158) rotate(0) scale(0.62)"><path d="M0 0C44 2 76 34 78 78 34 76 2 44 0 0Z" fill="#F8FCFE"/><path d="M8 8 L70 70" stroke="#FFFFFF" stroke-opacity=".6" stroke-width="6" fill="none" stroke-linecap="round"/></g>
</svg>
